#!OML:ASF F:\VICON\USERDATA\INSTALL\rory3\rory3.ASF
:FULLY-SPECIFIED
:DEGREES
1
root -15.4835 18.5016 -3.55019 -0.851842 10.4347 0.294192
lowerback 6.48146 0.0871603 2.41972
upperback 3.21866 0.268892 0.762371
thorax -0.309897 0.157942 -0.591947
lowerneck -10.4685 1.7719 -6.6282
upperneck 20.3107 2.35483 6.64097
head 7.80183 1.27148 3.54477
rclavicle 1.19271e-015 -1.82882e-014
rhumerus -34.2195 0.690084 -75.1209
rradius 26.259
rwrist 13.181
rhand -25.5649 2.56521
rfingers 7.12502
rthumb 0.965955 -27.4124
lclavicle 1.19271e-015 -1.82882e-014
lhumerus -33.329 -28.2869 97.941
lradius 40.2392
lwrist 3.47546
lhand 0.72094 21.9809
lfingers 7.12502
lthumb 26.2807 50.1806
rfemur -9.90937 11.6769 24.5959
rtibia 29.9326
rfoot -19.6001 -18.0772
rtoes 1.4454
lfemur -10.8986 -6.39861 -5.8136
ltibia 20.6745
lfoot -10.5193 17.4277
ltoes -9.3347
2
root -15.4857 18.5012 -3.55442 -0.877927 11.0317 0.488055
lowerback 6.61147 0.151984 2.20245
upperback 3.28913 0.346369 0.793926
thorax -0.309148 0.194977 -0.443223
lowerneck -10.7409 1.93848 -6.57975
upperneck 20.5942 2.60157 6.58091
head 7.92894 1.38841 3.55284
rclavicle 3.57812e-015 1.59028e-015
rhumerus -34.2917 0.737362 -74.9781
rradius 26.3859
rwrist 13.3381
rhand -25.3743 2.24677
rfingers 7.12502
rthumb 1.15002 -27.7299
lclavicle 3.57812e-015 1.59028e-015
lhumerus -33.2893 -28.0467 97.8636
lradius 40.618
lwrist 3.62916
lhand 1.14564 22.2803
lfingers 7.12502
lthumb 26.6872 50.4187
rfemur -9.85369 11.6966 24.4332
rtibia 30.0445
rfoot -19.8392 -18.6066
rtoes 1.70129
lfemur -10.8975 -6.23326 -5.97091
ltibia 20.4834
lfoot -10.3256 16.4798
ltoes -11.7837
3
root -15.4878 18.4967 -3.5686 -0.815636 11.7617 0.521968
lowerback 6.77979 0.222126 2.2856
upperback 3.26218 0.450502 0.767259
thorax -0.426657 0.247061 -0.525385
lowerneck -10.9324 2.03785 -6.55212
upperneck 20.823 2.72296 6.67904
head 8.0291 1.45921 3.60356
rclavicle 6.75868e-015 7.95139e-015
rhumerus -34.6746 0.749582 -74.9851
rradius 26.6772
rwrist 13.112
rhand -25.687 2.28442
rfingers 7.12502
rthumb 0.84801 -27.6936
lclavicle 6.75868e-015 7.95139e-015
lhumerus -33.3827 -28.1604 97.8323
lradius 40.9178
lwrist 3.56382
lhand 1.40149 22.5893
lfingers 7.12502
lthumb 26.9321 50.6902
rfemur -9.96286 11.5902 24.3971
rtibia 30.1239
rfoot -20.017 -19.0798
rtoes 2.19728
lfemur -11.1547 -6.16103 -5.92964
ltibia 20.4338
lfoot -10.4444 15.3945
ltoes -12.7317
4
root -15.4884 18.4932 -3.57778 -0.763623 12.4035 0.519782
lowerback 6.80826 0.333839 2.4291
upperback 3.25689 0.608542 0.713234
thorax -0.441393 0.327875 -0.672573
lowerneck -11.1453 2.0735 -6.65779
upperneck 21.1333 2.73465 6.99788
head 8.16175 1.48936 3.74498
rclavicle -1.14301e-014 -4.77083e-015
rhumerus -34.8953 0.712687 -75.0661
rradius 26.7892
rwrist 12.9255
rhand -25.9223 2.56029
rfingers 7.12502
rthumb 0.620836 -27.4185
lclavicle -1.14301e-014 -4.77083e-015
lhumerus -33.399 -28.357 97.776
lradius 41.0377
lwrist 3.60707
lhand 1.5152 22.7868
lfingers 7.12502
lthumb 27.0409 50.8708
rfemur -10.0485 11.4751 24.3908
rtibia 30.1904
rfoot -20.1574 -19.4753
rtoes 2.60013
lfemur -11.3756 -5.98701 -5.86998
ltibia 20.3937
lfoot -10.5805 14.3833
ltoes -12.435
5
root -15.4878 18.4923 -3.57698 -0.80752 12.9307 0.516182
lowerback 6.76301 0.42401 2.4212
upperback 3.31631 0.726334 0.749602
thorax -0.352244 0.388071 -0.638066
lowerneck -11.287 2.19308 -6.76983
upperneck 21.3743 2.88966 7.18239
head 8.25011 1.57335 3.85224
rclavicle -3.50855e-014 -5.1684e-015
rhumerus -34.7186 0.940541 -75.1036
rradius 26.5541
rwrist 12.6281
rhand -26.2415 2.78799
rfingers 7.12502
rthumb 0.312485 -27.1915
lclavicle -3.50855e-014 -5.1684e-015
lhumerus -33.348 -28.2203 97.7038
lradius 41.1515
lwrist 3.76076
lhand 1.70511 22.919
lfingers 7.12502
lthumb 27.2225 50.9747
rfemur -9.97306 11.4223 24.4265
rtibia 30.2388
rfoot -20.3111 -19.8773
rtoes 2.86646
lfemur -11.466 -5.65423 -5.85093
ltibia 20.4253
lfoot -10.5806 13.5256
ltoes -12.0448
6
root -15.4845 18.4891 -3.58089 -0.826422 13.5321 0.475965
lowerback 6.77726 0.461991 2.53089
upperback 3.27926 0.784983 0.74992
thorax -0.394922 0.417944 -0.703642
lowerneck -11.0952 2.38828 -6.61359
upperneck 21.4544 3.12687 7.1482
head 8.22636 1.69338 3.83417
rclavicle -9.93923e-017 1.98785e-014
rhumerus -34.6567 1.13386 -75.142
rradius 26.3193
rwrist 12.5677
rhand -26.8037 2.83113
rfingers 7.12502
rthumb -0.23052 -27.1485
lclavicle -9.93923e-017 1.98785e-014
lhumerus -33.4441 -28.045 97.5996
lradius 41.38
lwrist 4.11861
lhand 2.00093 23.0862
lfingers 7.12502
lthumb 27.5055 51.0973
rfemur -9.94152 11.3339 24.4864
rtibia 30.277
rfoot -20.5299 -20.3226
rtoes 2.923
lfemur -11.6097 -5.24226 -5.81881
ltibia 20.5008
lfoot -10.4967 12.6974
ltoes -11.9471
7
root -15.4756 18.4872 -3.58574 -0.78569 14.1373 0.491158
lowerback 6.75189 0.544913 2.71267
upperback 3.1969 0.906276 0.678678
thorax -0.457584 0.479478 -0.887394
lowerneck -10.8421 2.51356 -6.37738
upperneck 21.5506 3.2426 7.14133
head 8.2074 1.76469 3.79962
rclavicle 3.3197e-014 2.78299e-015
rhumerus -34.7557 1.1004 -75.1466
rradius 26.1854
rwrist 12.7847
rhand -26.6102 2.66452
rfingers 7.12502
rthumb -0.0435937 -27.3152
lclavicle 3.3197e-014 2.78299e-015
lhumerus -33.528 -28.1199 97.5563
lradius 41.4576
lwrist 4.24564
lhand 1.98996 22.9142
lfingers 7.12502
lthumb 27.495 50.9269
rfemur -9.96326 11.0663 24.4298
rtibia 30.314
rfoot -20.7565 -20.593
rtoes 2.73633
lfemur -11.7684 -4.82925 -5.88402
ltibia 20.6303
lfoot -10.5965 12.0362
ltoes -11.5657
8
root -15.4662 18.4873 -3.58939 -0.787662 14.6699 0.56907
lowerback 6.76952 0.65856 2.74302
upperback 3.19896 1.0598 0.647574
thorax -0.458603 0.556883 -0.947132
lowerneck -10.8879 2.61116 -6.31841
upperneck 21.7169 3.35358 7.2127
head 8.26228 1.82999 3.83113
rclavicle -4.95968e-014 2.78299e-015
rhumerus -34.6729 0.933691 -75.0333
rradius 26.0331
rwrist 12.9163
rhand -26.1821 2.49254
rfingers 7.12502
rthumb 0.36987 -27.4869
lclavicle -4.95968e-014 2.78299e-015
lhumerus -33.4263 -28.1671 97.5443
lradius 41.3533
lwrist 4.03779
lhand 1.6425 22.5796
lfingers 7.12502
lthumb 27.1626 50.6447
rfemur -9.93151 10.6968 24.3005
rtibia 30.3543
rfoot -20.8694 -20.7157
rtoes 2.63624
lfemur -11.8516 -4.36058 -6.05382
ltibia 20.8401
lfoot -10.9203 11.6715
ltoes -11.7791
9
root -15.4618 18.485 -3.59589 -0.868213 15.2244 0.57948
lowerback 6.9365 0.735218 2.79385
upperback 3.18608 1.17112 0.61721
thorax -0.558514 0.612015 -1.01745
lowerneck -10.7123 2.7295 -6.51131
upperneck 21.6001 3.45086 7.67969
head 8.16639 1.90792 4.0211
rclavicle -3.58806e-014 2.78299e-015
rhumerus -34.5714 0.66557 -74.9442
rradius 25.8524
rwrist 12.999
rhand -26.4578 2.51142
rfingers 7.12502
rthumb 0.103553 -27.4683
lclavicle -3.58806e-014 2.78299e-015
lhumerus -33.4768 -28.1638 97.5112
lradius 41.3767
lwrist 3.83194
lhand 1.13296 22.4474
lfingers 7.12502
lthumb 26.6751 50.5877
rfemur -9.849 10.4354 24.2872
rtibia 30.3944
rfoot -20.948 -20.9657
rtoes 2.6423
lfemur -11.9385 -3.8092 -6.15723
ltibia 21.1446
lfoot -11.2203 11.4782
ltoes -12.5271
10
root -15.459 18.4808 -3.60129 -0.976429 15.766 0.481039
lowerback 7.11378 0.82216 2.96482
upperback 3.1424 1.3048 0.583185
thorax -0.691558 0.678449 -1.16159
lowerneck -10.3752 2.87815 -6.57979
upperneck 21.4411 3.58056 8.04881
head 8.02875 1.99936 4.15287
rclavicle 5.02428e-014 1.98785e-015
rhumerus -34.5343 0.462668 -74.8649
rradius 25.6698
rwrist 13.3878
rhand -26.736 3.11394
rfingers 7.12502
rthumb -0.165145 -26.8657
lclavicle 5.02428e-014 1.98785e-015
lhumerus -33.7183 -28.2286 97.5152
lradius 41.5957
lwrist 3.97467
lhand 0.372036 22.5182
lfingers 7.12502
lthumb 25.9467 50.7673
rfemur -9.75398 10.3411 24.4202
rtibia 30.4387
rfoot -21.1113 -21.3438
rtoes 2.73226
lfemur -12.0613 -3.14988 -6.13793
ltibia 21.5288
lfoot -11.4981 11.3985
ltoes -12.25
11
root -15.4554 18.4789 -3.60728 -0.977034 16.3586 0.442713
lowerback 7.17501 0.876101 3.00131
upperback 3.12532 1.38238 0.611027
thorax -0.739605 0.71667 -1.16054
lowerneck -10.3437 3.13058 -6.06597
upperneck 21.6693 3.98019 7.34663
head 8.09954 2.15993 3.87235
rclavicle -7.95139e-015 7.15625e-015
rhumerus -34.3523 0.260653 -74.5762
rradius 25.5307
rwrist 14.2601
rhand -26.8148 3.95883
rfingers 7.12502
rthumb -0.241241 -26.0208
lclavicle -7.95139e-015 7.15625e-015
lhumerus -33.7406 -28.1639 97.5453
lradius 41.6427
lwrist 4.25564
lhand -0.162118 23.0737
lfingers 7.12502
lthumb 25.4351 51.3967
rfemur -9.75255 10.2863 24.4698
rtibia 30.4775
rfoot -21.3036 -21.7753
rtoes 2.93192
lfemur -12.2901 -2.34163 -6.19533
ltibia 21.9936
lfoot -11.8134 11.2974
ltoes -11.5208
12
root -15.45 18.4789 -3.6125 -0.884645 17.1217 0.526515
lowerback 7.14565 0.854122 2.8979
upperback 3.09166 1.34672 0.626352
thorax -0.762599 0.697493 -1.08406
lowerneck -10.3919 3.35906 -5.677
upperneck 21.9656 4.34539 6.78702
head 8.20783 2.30803 3.66369
rclavicle -6.5102e-014 6.75868e-015
rhumerus -34.1311 0.0786173 -74.3153
rradius 25.425
rwrist 14.7376
rhand -26.8663 4.18466
rfingers 7.12502
rthumb -0.290985 -25.7949
lclavicle -6.5102e-014 6.75868e-015
lhumerus -33.6356 -28.062 97.5582
lradius 41.5299
lwrist 4.21763
lhand -1.4338 22.7229
lfingers 7.12502
lthumb 24.2163 51.2139
rfemur -9.78822 10.1759 24.3766
rtibia 30.5107
rfoot -21.5599 -22.2446
rtoes 3.22597
lfemur -12.6168 -1.5925 -6.41313
ltibia 22.5077
lfoot -12.0809 11.2322
ltoes -11.2718
13
root -15.4418 18.4755 -3.61602 -0.861773 17.8496 0.478211
lowerback 7.12781 0.841712 2.97625
upperback 3.04726 1.33584 0.614478
thorax -0.796673 0.691957 -1.13955
lowerneck -10.49 3.45241 -5.71607
upperneck 22.2308 4.45473 6.93607
head 8.30132 2.37214 3.7431
rclavicle -4.34344e-014 6.36111e-015
rhumerus -33.8056 -0.162475 -74.1676
rradius 25.0541
rwrist 15.0595
rhand -26.5948 3.89441
rfingers 7.12502
rthumb -0.0287006 -26.0853
lclavicle -4.34344e-014 6.36111e-015
lhumerus -33.5819 -27.9773 97.4674
lradius 41.6243
lwrist 4.20548
lhand -3.40255 20.6867
lfingers 7.12502
lthumb 22.3276 49.4166
rfemur -9.77589 10.0796 24.4283
rtibia 30.5478
rfoot -21.8621 -22.6994
rtoes 3.52502
lfemur -12.8896 -0.947663 -6.49348
ltibia 23.0167
lfoot -12.4464 11.353
ltoes -11.0254
14
root -15.4312 18.4718 -3.6173 -0.862925 18.4392 0.439545
lowerback 7.07184 0.881059 3.05003
upperback 3.05987 1.39078 0.599277
thorax -0.748088 0.721068 -1.19928
lowerneck -10.6188 3.50161 -5.78853
upperneck 22.4 4.51173 7.08435
head 8.37112 2.40947 3.82099
rclavicle -4.73604e-014 3.97569e-016
rhumerus -33.381 -0.658133 -73.8889
rradius 24.6753
rwrist 15.9899
rhand -26.1389 3.31336
rfingers 7.12502
rthumb 0.41162 -26.666
lclavicle -4.73604e-014 3.97569e-016
lhumerus -33.4321 -27.7523 97.265
lradius 41.8029
lwrist 4.00139
lhand -3.43946 19.9765
lfingers 7.12502
lthumb 22.2922 48.7106
rfemur -9.72889 9.97026 24.4573
rtibia 30.5615
rfoot -22.1314 -23.0699
rtoes 3.71119
lfemur -13.0797 -0.19734 -6.58156
ltibia 23.541
lfoot -12.8894 11.5683
ltoes -10.564
